<?xml version="1.0" encoding="UTF-8" standalone="no"?>
<!-- Created with Inkscape (http://www.inkscape.org/) -->

<svg
   xmlns:dc="http://purl.org/dc/elements/1.1/"
   xmlns:cc="http://creativecommons.org/ns#"
   xmlns:rdf="http://www.w3.org/1999/02/22-rdf-syntax-ns#"
   xmlns:svg="http://www.w3.org/2000/svg"
   xmlns="http://www.w3.org/2000/svg"
   xmlns:sodipodi="http://sodipodi.sourceforge.net/DTD/sodipodi-0.dtd"
   xmlns:inkscape="http://www.inkscape.org/namespaces/inkscape"
   id="svg2"
   version="1.1"
   inkscape:version="0.48.4 r9939"
   width="687.5"
   height="500"
   xml:space="preserve"
   sodipodi:docname="logo28.ai"><metadata
     id="metadata8"><rdf:RDF><cc:Work
         rdf:about=""><dc:format>image/svg+xml</dc:format><dc:type
           rdf:resource="http://purl.org/dc/dcmitype/StillImage" /><dc:title></dc:title></cc:Work></rdf:RDF></metadata><defs
     id="defs6"><clipPath
       clipPathUnits="userSpaceOnUse"
       id="clipPath16"><path
         d="m 362.5,208 c -2.033,-2.066 -3.05,-4.55 -3.05,-7.45 l 0,0 c 0,-2.899 1.017,-5.366 3.05,-7.399 l 0,0 c 2.067,-2.068 4.55,-3.102 7.45,-3.102 l 0,0 c 2.899,0 5.366,1.034 7.399,3.102 l 0,0 c 2.068,2.033 3.101,4.5 3.101,7.399 l 0,0 c 0,2.9 -1.033,5.384 -3.101,7.45 l 0,0 c -2.033,2.033 -4.5,3.05 -7.399,3.05 l 0,0 c -2.9,0 -5.383,-1.017 -7.45,-3.05"
         id="path18" /></clipPath><linearGradient
       x1="0"
       y1="0"
       x2="1"
       y2="0"
       gradientUnits="userSpaceOnUse"
       gradientTransform="matrix(21,0,0,-21,359.4502,200.5498)"
       spreadMethod="pad"
       id="linearGradient24"><stop
         style="stop-opacity:1;stop-color:#000000"
         offset="0"
         id="stop26" /><stop
         style="stop-opacity:1;stop-color:#333333"
         offset="1"
         id="stop28" /></linearGradient><clipPath
       clipPathUnits="userSpaceOnUse"
       id="clipPath36"><path
         d="m 159.55,208 c -2.034,-2.066 -3.05,-4.55 -3.05,-7.45 l 0,0 c 0,-2.899 1.016,-5.366 3.05,-7.399 l 0,0 c 2.067,-2.068 4.55,-3.102 7.45,-3.102 l 0,0 c 2.9,0 5.367,1.034 7.4,3.102 l 0,0 c 2.067,2.033 3.1,4.5 3.1,7.399 l 0,0 c 0,2.9 -1.033,5.384 -3.1,7.45 l 0,0 c -2.033,2.033 -4.5,3.05 -7.4,3.05 l 0,0 c -2.9,0 -5.383,-1.017 -7.45,-3.05"
         id="path38" /></clipPath><linearGradient
       x1="0"
       y1="0"
       x2="1"
       y2="0"
       gradientUnits="userSpaceOnUse"
       gradientTransform="matrix(21,0,0,-21,156.5,200.5498)"
       spreadMethod="pad"
       id="linearGradient44"><stop
         style="stop-opacity:1;stop-color:#000000"
         offset="0"
         id="stop46" /><stop
         style="stop-opacity:1;stop-color:#333333"
         offset="1"
         id="stop48" /></linearGradient><clipPath
       clipPathUnits="userSpaceOnUse"
       id="clipPath56"><path
         d="M 288.4,269.951 218.201,148.2 l 10.448,-18.1 80.751,0 40.35,69.9 -40.35,69.951 -21,0 z"
         id="path58" /></clipPath><linearGradient
       x1="0"
       y1="0"
       x2="1"
       y2="0"
       gradientUnits="userSpaceOnUse"
       gradientTransform="matrix(-6.1e-6,139.8501,139.8501,6.1e-6,283.97461,130.09961)"
       spreadMethod="pad"
       id="linearGradient64"><stop
         style="stop-opacity:1;stop-color:#000000"
         offset="0"
         id="stop66" /><stop
         style="stop-opacity:1;stop-color:#333333"
         offset="1"
         id="stop68" /></linearGradient><clipPath
       clipPathUnits="userSpaceOnUse"
       id="clipPath76"><path
         d="M 228.649,269.951 188.3,200 l 19.901,-34.5 60.199,104.451 -39.751,0 z"
         id="path78" /></clipPath><linearGradient
       x1="0"
       y1="0"
       x2="1"
       y2="0"
       gradientUnits="userSpaceOnUse"
       gradientTransform="matrix(-4.6e-6,104.44971,104.44971,4.6e-6,228.3501,165.5)"
       spreadMethod="pad"
       id="linearGradient84"><stop
         style="stop-opacity:1;stop-color:#000000"
         offset="0"
         id="stop86" /><stop
         style="stop-opacity:1;stop-color:#333333"
         offset="1"
         id="stop88" /></linearGradient></defs><sodipodi:namedview
     pagecolor="#ffffff"
     bordercolor="#666666"
     borderopacity="1"
     objecttolerance="10"
     gridtolerance="10"
     guidetolerance="10"
     inkscape:pageopacity="0"
     inkscape:pageshadow="2"
     inkscape:window-width="1366"
     inkscape:window-height="713"
     id="namedview4"
     showgrid="false"
     inkscape:zoom="2.1649824"
     inkscape:cx="343.75"
     inkscape:cy="250"
     inkscape:window-x="0"
     inkscape:window-y="30"
     inkscape:window-maximized="1"
     inkscape:current-layer="g10" /><g
     id="g10"
     inkscape:groupmode="layer"
     inkscape:label="logo28"
     transform="matrix(1.25,0,0,-1.25,0,500)"><g
       id="g52"
       style="fill:#1a1a1a"><g
         id="g54"
         clip-path="url(#clipPath56)"
         style="fill:#1a1a1a"><g
           id="g60"
           style="fill:#1a1a1a"><g
             id="g62"
             style="fill:#1a1a1a"><path
               d="M 288.4,269.951 218.201,148.2 l 10.448,-18.1 80.751,0 40.35,69.9 -40.35,69.951 -21,0 z"
               style="fill:#1a1a1a;stroke:none"
               id="path70" /></g></g></g></g><g
       id="g72"
       style="fill:#1a1a1a"><g
         id="g74"
         clip-path="url(#clipPath76)"
         style="fill:#1a1a1a"><g
           id="g80"
           style="fill:#1a1a1a"><g
             id="g82"
             style="fill:#1a1a1a"><path
               d="M 228.649,269.951 188.3,200 l 19.901,-34.5 60.199,104.451 -39.751,0 z"
               style="fill:#1a1a1a;stroke:none"
               id="path90" /></g></g></g></g></g></svg>